#!OML:ASF F:\VICON\USERDATA\INSTALL\rory3\rory3.ASF
:FULLY-SPECIFIED
:DEGREES
328
root -0.208568 24.2344 4.37865 -178.882 2.07429 175.455
lowerback 27.554 -0.676929 -4.31083
upperback 5.3835 -0.995075 -2.08691
thorax -9.15603 0.179316 0.401253
lowerneck -10.9563 -1.98799 -7.74028
upperneck 6.4573 -2.1905 7.69159
head 3.88233 -0.865716 3.48276
rclavicle -1.13307e-014 -3.16068e-014
rhumerus 7.88616 3.45195 -80.2254
rradius 51.4694
rwrist 3.65384
rhand -43.4 6.28343
rfingers 7.12502
rthumb -16.2436 -23.0561
lclavicle -1.13307e-014 -3.16068e-014
lhumerus 9.75097 -6.2976 85.8885
lradius 68.9767
lwrist 19.6835
lhand -29.7866 26.579
lfingers 7.12502
lthumb -3.11133 56.536
rfemur -69.6397 -5.38277 10.9293
rtibia 110.566
rfoot -27.8898 -8.11349
rtoes -13.979
lfemur -24.4583 8.20507 -31.1853
ltibia 32.0372
lfoot 4.766 4.73616
ltoes -16.4175
329
root -0.2026 24.2592 4.37197 -178.971 2.09692 175.441
lowerback 27.5313 -0.602187 -4.44824
upperback 5.43207 -0.920147 -2.06299
thorax -9.08747 0.221026 0.481284
lowerneck -11.0197 -2.08144 -7.83111
upperneck 6.54387 -2.32069 7.91427
head 3.93348 -0.91801 3.55869
rclavicle -8.74653e-015 -7.55382e-015
rhumerus 7.87982 3.38028 -80.1703
rradius 51.3474
rwrist 3.46993
rhand -43.4302 6.37597
rfingers 7.12502
rthumb -16.2726 -22.9612
lclavicle -8.74653e-015 -7.55382e-015
lhumerus 9.74501 -6.47174 85.8614
lradius 68.9384
lwrist 19.7106
lhand -29.7953 27.1013
lfingers 7.12502
lthumb -3.11977 57.0582
rfemur -70.2508 -4.97738 11.1397
rtibia 110.723
rfoot -28.0815 -7.81331
rtoes -14.6784
lfemur -24.1825 8.52503 -31.2007
ltibia 31.684
lfoot 5.03059 4.60623
ltoes -16.4392
330
root -0.196263 24.28 4.38196 -178.914 1.48387 175.404
lowerback 27.6771 -0.785516 -4.41179
upperback 5.37644 -1.15751 -2.0331
thorax -9.21511 0.111553 0.574429
lowerneck -11.1197 -2.12749 -7.7884
upperneck 6.66401 -2.39046 7.94774
head 3.99205 -0.946879 3.55759
rclavicle 1.59028e-015 7.55382e-015
rhumerus 7.74145 3.33552 -80.1317
rradius 51.337
rwrist 3.28582
rhand -43.5505 6.384
rfingers 7.12502
rthumb -16.3884 -22.9436
lclavicle 1.59028e-015 7.55382e-015
lhumerus 9.61881 -6.57294 85.8764
lradius 68.9508
lwrist 19.6976
lhand -29.7645 27.3244
lfingers 7.12502
lthumb -3.09006 57.2818
rfemur -70.9324 -5.45758 11.3668
rtibia 110.858
rfoot -28.2857 -7.27377
rtoes -15.2789
lfemur -24.0793 8.28334 -31.3075
ltibia 31.3161
lfoot 5.55289 4.4439
ltoes -16.5883
331
root -0.192857 24.3059 4.36568 -178.985 1.50127 175.412
lowerback 27.5457 -0.737311 -4.48494
upperback 5.40396 -1.10615 -2.04107
thorax -9.1175 0.135818 0.590094
lowerneck -11.0442 -2.10815 -7.60384
upperneck 6.56888 -2.37778 7.77999
head 3.94525 -0.946709 3.47543
rclavicle 1.09332e-015 8.54774e-015
rhumerus 7.60425 3.18733 -80.2022
rradius 51.2565
rwrist 3.18438
rhand -43.3955 6.51188
rfingers 7.12502
rthumb -16.2392 -22.828
lclavicle 1.09332e-015 8.54774e-015
lhumerus 9.63072 -6.72457 85.8386
lradius 68.8684
lwrist 19.6596
lhand -29.8983 27.5931
lfingers 7.12502
lthumb -3.21924 57.5485
rfemur -71.3705 -5.11077 11.582
rtibia 110.748
rfoot -28.3667 -6.80415
rtoes -15.4135
lfemur -23.7829 8.63564 -31.3163
ltibia 30.9706
lfoot 5.85073 4.32787
ltoes -16.5214
332
root -0.186568 24.3208 4.35795 -179.061 1.25515 175.27
lowerback 27.5316 -0.772654 -4.65636
upperback 5.41509 -1.19371 -2.05997
thorax -9.08857 0.101571 0.696817
lowerneck -10.8644 -2.11549 -7.63785
upperneck 6.40116 -2.39408 7.87792
head 3.86796 -0.953687 3.51039
rclavicle -4.96962e-016 -3.99557e-014
rhumerus 7.54527 3.10412 -80.2265
rradius 51.1262
rwrist 3.14845
rhand -43.1911 6.80174
rfingers 7.12502
rthumb -16.0424 -22.5541
lclavicle -4.96962e-016 -3.99557e-014
lhumerus 9.68772 -6.82435 85.8421
lradius 68.7026
lwrist 19.5843
lhand -29.8984 27.6151
lfingers 7.12502
lthumb -3.21929 57.5705
rfemur -71.7812 -4.98869 11.581
rtibia 110.508
rfoot -28.1434 -6.05345
rtoes -14.8577
lfemur -23.5201 8.68187 -31.4725
ltibia 30.6933
lfoot 6.10646 4.2055
ltoes -16.4744
333
root -0.175637 24.3302 4.35408 -178.975 0.871101 175.136
lowerback 27.3667 -0.83402 -4.78753
upperback 5.42826 -1.29893 -2.05795
thorax -8.9811 0.0532359 0.809853
lowerneck -10.8705 -2.2233 -7.73833
upperneck 6.41043 -2.54073 8.07833
head 3.88776 -1.01692 3.57955
rclavicle -8.44835e-015 -1.68967e-014
rhumerus 7.5939 3.0276 -80.1402
rradius 50.9326
rwrist 3.09216
rhand -43.2939 6.76896
rfingers 7.12502
rthumb -16.1414 -22.5789
lclavicle -8.44835e-015 -1.68967e-014
lhumerus 9.68716 -6.94047 85.8871
lradius 68.6629
lwrist 19.5875
lhand -29.7545 27.3874
lfingers 7.12502
lthumb -3.08038 57.3449
rfemur -72.3123 -4.91214 11.5982
rtibia 110.202
rfoot -28.0964 -5.1179
rtoes -14.3538
lfemur -23.4597 8.49571 -31.615
ltibia 30.4848
lfoot 6.41059 3.98804
ltoes -16.8249
